<svg xmlns="http://www.w3.org/2000/svg" viewBox="0 0 933 180" width="933" height="180" role="img" aria-label="Āwhina Tech">
  <title>Āwhina Tech</title>

<g transform="translate(24,20.0) scale(5.833333333333333)"
   fill="none" stroke="#2f5d3a" stroke-width="1.8"
   stroke-linecap="round" stroke-linejoin="round">
  <path d="M19 14c1.49-1.46 3-3.21 3-5.5A5.5 5.5 0 0 0 16.5 3c-1.76 0-3 .5-4.5 2-1.5-1.5-2.74-2-4.5-2A5.5 5.5 0 0 0 2 8.5c0 2.3 1.5 4.05 3 5.5l7 7Z"/>
  <path d="M12 5 9.04 7.96a2.17 2.17 0 0 0 0 3.08c.82.82 2.13.85 3 .07l2.07-1.9a2.82 2.82 0 0 1 3.79 0l2.96 2.66"/>
  <path d="m18 15-2-2"/>
  <path d="m15 18-2-2"/>
</g>
<g transform="translate(188,136.0) scale(0.06174496644295302)" fill="#0e1413"><g transform="scale(1,-1)"><path d="M299.6064453125 0H11.200439453125L536.799072265625 1490H869.2080078125L1393.606689453125 0H1106.400634765625L708.403564453125 1184.395751953125H696.403564453125ZM309.602783203125 584.400146484375H1094.80419921875V367.5966796875H309.602783203125ZM1052.004150390625 1862.0V1700.799072265625H352.802978515625V1862.0Z" transform="translate(0,0)"/><path d="M327.597900390625 0 11.599365234375 1118H280.40478515625L476.802001953125 331.604248046875H487.201904296875L687.599609375 1118H953.20458984375L1153.6025390625 335.204345703125H1164.00244140625L1357.99951171875 1118H1626.804931640625L1310.806396484375 0H1036.39990234375L826.402099609375 754.793701171875H812.002197265625L602.00439453125 0Z" transform="translate(1368.136,0)"/><path d="M360.0048828125 654.39892578125V0H97.19921875V1490H353.6044921875V926.799072265625H368.00439453125Q406.6043701171875 1021.799560546875 488.90460205078125 1076.8997802734375Q571.204833984375 1132 700.004638671875 1132Q815.604736328125 1132 902.2047729492188 1083.0997924804688Q988.8048095703125 1034.1995849609375 1037.0048217773438 940.299560546875Q1085.204833984375 846.3995361328125 1085.204833984375 710.800048828125V0H821.19921875V669.998291015625Q821.19921875 783.5970458984375 763.1998901367188 846.3964233398438Q705.2005615234375 909.19580078125 601.20166015625 909.19580078125Q530.6025390625 909.19580078125 476.40325927734375 878.9961547851562Q422.2039794921875 848.7965087890625 391.10443115234375 792.1972045898438Q360.0048828125 735.597900390625 360.0048828125 654.39892578125Z" transform="translate(2969.272,0)"/><path d="M97.19921875 0V1118H360.0048828125V0ZM228.802001953125 1275.1982421875Q166.001220703125 1275.1982421875 121.20068359375 1317.171142578125Q76.400146484375 1359.14404296875 76.400146484375 1418.39990234375Q76.400146484375 1478.0006103515625 121.20068359375 1519.8010864257812Q166.001220703125 1561.6015625 228.802001953125 1561.6015625Q291.602783203125 1561.6015625 336.4033203125 1519.8010864257812Q381.203857421875 1478.0006103515625 381.203857421875 1418.5999145507812Q381.203857421875 1359.19921875 336.4033203125 1317.19873046875Q291.602783203125 1275.1982421875 228.802001953125 1275.1982421875Z" transform="translate(4114.407999999999,0)"/><path d="M360.0048828125 654.39892578125V0H97.19921875V1118H354.804931640625V926.799072265625H367.604736328125Q405.8046875 1021.1995849609375 487.60479736328125 1076.5997924804688Q569.4049072265625 1132 695.204833984375 1132Q810.60498046875 1132 896.6050415039062 1082.7998046875Q982.6051025390625 1033.599609375 1030.3051147460938 939.4995727539062Q1078.005126953125 845.3995361328125 1078.005126953125 710.800048828125V0H815.199462890625V669.998291015625Q815.199462890625 781.797119140625 757.0001220703125 845.4964599609375Q698.80078125 909.19580078125 597.0018310546875 909.19580078125Q528.20263671875 909.19580078125 474.60333251953125 878.9961547851562Q421.0040283203125 848.7965087890625 390.50445556640625 792.1972045898438Q360.0048828125 735.597900390625 360.0048828125 654.39892578125Z" transform="translate(4534.544,0)"/><path d="M418.798828125 -22.7998046875Q312.3988037109375 -22.7998046875 227.19891357421875 15.7000732421875Q141.9990234375 54.199951171875 92.9991455078125 129.1998291015625Q43.999267578125 204.19970703125 43.999267578125 313.999755859375Q43.999267578125 408.399658203125 79.1990966796875 470.09979248046875Q114.39892578125 531.7999267578125 174.89874267578125 569.10009765625Q235.3985595703125 606.4002685546875 311.0985107421875 625.6004028320312Q386.7984619140625 644.800537109375 468.398681640625 653.200439453125Q567.198486328125 663.80029296875 627.8983154296875 672.0003662109375Q688.59814453125 680.200439453125 716.498046875 698.2005004882812Q744.39794921875 716.2005615234375 744.39794921875 753.600341796875V758.80029296875Q744.39794921875 840.19873046875 696.0985717773438 885.2978515625Q647.7991943359375 930.39697265625 555.600830078125 930.39697265625Q459.202392578125 930.39697265625 402.80322265625 888.2976684570312Q346.404052734375 846.1983642578125 326.404541015625 788.798583984375L80.799560546875 823.59716796875Q109.9986572265625 925.59716796875 177.0982666015625 994.1978759765625Q244.1978759765625 1062.798583984375 340.698486328125 1097.3992919921875Q437.1990966796875 1132 554.401123046875 1132Q634.4027099609375 1132 714.4033203125 1113.2996215820312Q794.4039306640625 1094.5992431640625 861.1039428710938 1050.8989868164062Q927.803955078125 1007.19873046875 968.103759765625 932.8990478515625Q1008.403564453125 858.599365234375 1008.403564453125 748.000732421875V0H754.798583984375V154.400146484375H746.798583984375Q722.9981689453125 107.5994873046875 679.3980102539062 67.299560546875Q635.7978515625 26.9996337890625 571.2980346679688 2.09991455078125Q506.7982177734375 -22.7998046875 418.798828125 -22.7998046875ZM486.4013671875 171.20263671875Q566 171.20263671875 624.1992797851562 202.8021240234375Q682.3985595703125 234.401611328125 714.1983032226562 286.700927734375Q745.998046875 339.000244140625 745.998046875 400.7998046875V532.398193359375Q732.9979248046875 522.1983642578125 703.8983764648438 513.4984741210938Q674.798828125 504.798583984375 638.0994873046875 497.9986572265625Q601.400146484375 491.19873046875 565.8007202148438 486.29876708984375Q530.2012939453125 481.3988037109375 504.4013671875 477.998779296875Q445.40185546875 469.798828125 398.80255126953125 451.4989013671875Q352.2032470703125 433.198974609375 325.30377197265625 400.99932861328125Q298.404296875 368.7996826171875 298.404296875 317.6005859375Q298.404296875 245.401611328125 351.303466796875 208.3021240234375Q404.20263671875 171.20263671875 486.4013671875 171.20263671875Z" transform="translate(5672.68,0)"/><path d="M42.799560546875 1263.595947265625V1490H1231.203857421875V1263.595947265625H771.204345703125V0H503.9990234375V1263.595947265625Z" transform="translate(7136.952000000001,0)"/><path d="M592.40087890625 -22.39990234375Q424.200439453125 -22.39990234375 301.900146484375 48.20001220703125Q179.599853515625 118.7999267578125 114.19970703125 248.09991455078125Q48.799560546875 377.39990234375 48.799560546875 552.400146484375Q48.799560546875 724.8001708984375 113.79974365234375 855.2001342773438Q178.7999267578125 985.60009765625 297.10028076171875 1058.800048828125Q415.400634765625 1132 575.201171875 1132Q678.2021484375 1132 770.8025512695312 1098.7997436523438Q863.4029541015625 1065.5994873046875 934.9030151367188 996.7992553710938Q1006.403076171875 927.9990234375 1047.2030029296875 821.3990478515625Q1088.0029296875 714.799072265625 1088.0029296875 567.599609375V486.399169921875H171.599609375V663.200927734375H957.0006103515625L834.39794921875 611.201171875Q834.39794921875 705.60009765625 805.3983154296875 776.3991088867188Q776.398681640625 847.1981201171875 719.0994262695312 886.9974975585938Q661.8001708984375 926.796875 576.80126953125 926.796875Q491.8023681640625 926.796875 432.10321044921875 886.697509765625Q372.404052734375 846.59814453125 341.0045166015625 779.3989868164062Q309.60498046875 712.1998291015625 309.60498046875 629.200439453125V506.39892578125Q309.60498046875 403.8004150390625 345.40447998046875 331.4013671875Q381.2039794921875 259.0023193359375 445.8031005859375 220.90277099609375Q510.4022216796875 182.80322265625 595.60107421875 182.80322265625Q652.200439453125 182.80322265625 698.5999145507812 199.10302734375Q744.9993896484375 215.40283203125 778.5989990234375 247.90240478515625Q812.1986083984375 280.4019775390625 829.598388671875 327.601318359375L1075.603271484375 298.802490234375Q1052.4034423828125 202.001708984375 987.7032470703125 129.701171875Q923.0030517578125 57.400634765625 822.6024780273438 17.5003662109375Q722.201904296875 -22.39990234375 592.40087890625 -22.39990234375Z" transform="translate(8374.088000000002,0)"/><path d="M583.601318359375 -22.39990234375Q417.20068359375 -22.39990234375 297.30029296875 51.300048828125Q177.39990234375 125 113.0997314453125 254.79998779296875Q48.799560546875 384.5999755859375 48.799560546875 553.60009765625Q48.799560546875 725.0001220703125 113.99969482421875 855.10009765625Q179.1998291015625 985.2000732421875 299.1002197265625 1058.6000366210938Q419.0006103515625 1132 582.4013671875 1132Q719.2025146484375 1132 823.9031372070312 1082.099609375Q928.603759765625 1032.19921875 991.3038940429688 941.7985229492188Q1054.0040283203125 851.3978271484375 1062.8037109375 729.996826171875H810.798828125Q800.9990234375 784.197021484375 772.1993408203125 827.1968994140625Q743.399658203125 870.19677734375 696.5001831054688 894.8966064453125Q649.6007080078125 919.596435546875 586.00146484375 919.596435546875Q504.8026123046875 919.596435546875 444.2034912109375 876.39697265625Q383.6043701171875 833.197509765625 349.80487060546875 752.0983276367188Q316.00537109375 670.9991455078125 316.00537109375 558Q316.00537109375 444.200927734375 349.20489501953125 361.50177001953125Q382.4044189453125 278.8026123046875 443.30352783203125 234.40313720703125Q504.20263671875 190.003662109375 586.00146484375 190.003662109375Q673.0006103515625 190.003662109375 733.5999145507812 241.10357666015625Q794.19921875 292.2034912109375 810.798828125 382.00341796875H1062.8037109375Q1053.60400390625 263.4022216796875 992.90380859375 172.20147705078125Q932.20361328125 81.000732421875 828.302978515625 29.3004150390625Q724.40234375 -22.39990234375 583.601318359375 -22.39990234375Z" transform="translate(9470.224000000002,0)"/><path d="M360.0048828125 654.39892578125V0H97.19921875V1490H353.6044921875V926.799072265625H368.00439453125Q406.6043701171875 1021.799560546875 488.90460205078125 1076.8997802734375Q571.204833984375 1132 700.004638671875 1132Q815.604736328125 1132 902.2047729492188 1083.0997924804688Q988.8048095703125 1034.1995849609375 1037.0048217773438 940.299560546875Q1085.204833984375 846.3995361328125 1085.204833984375 710.800048828125V0H821.19921875V669.998291015625Q821.19921875 783.5970458984375 763.1998901367188 846.3964233398438Q705.2005615234375 909.19580078125 601.20166015625 909.19580078125Q530.6025390625 909.19580078125 476.40325927734375 878.9961547851562Q422.2039794921875 848.7965087890625 391.10443115234375 792.1972045898438Q360.0048828125 735.597900390625 360.0048828125 654.39892578125Z" transform="translate(10541.360000000002,0)"/></g></g>
</svg>
